<svg width="49" height="48" viewBox="0 0 49 48" fill="none" xmlns="http://www.w3.org/2000/svg">
<g id="Icons">
<path id="Vector" d="M41.6 44H15.4C13.3 44 11.5 42.3 11.5 40.1V15.9C11.5 13.8 13.2 12 15.4 12H41.6C43.7 12 45.5 13.7 45.5 15.9V40.1C45.5 42.3 43.8 44 41.6 44Z" fill="#DD1515"/>
<path id="Vector_2" d="M29.1 40.5H11C8.8 40.5 7 38.7 7 36.5V11.5C7 9.3 8.8 7.5 11 7.5H13" stroke="#111111" stroke-width="2" stroke-miterlimit="10" stroke-linecap="round" stroke-linejoin="round"/>
<path id="Vector_3" d="M18.6 7.5H38C40.2 7.5 42 9.3 42 11.5V36.5C42 38.7 40.2 40.5 38 40.5H34.4" stroke="#111111" stroke-width="2" stroke-miterlimit="10" stroke-linecap="round" stroke-linejoin="round"/>
<path id="Vector_4" d="M7 15.5H42" stroke="#111111" stroke-width="2" stroke-miterlimit="10"/>
<path id="Vector_5" d="M13 22.5H25" stroke="#111111" stroke-width="2" stroke-linecap="round"/>
<path id="Vector_6" d="M13 31.5H25" stroke="#111111" stroke-width="2" stroke-linecap="round"/>
<path id="Vector_7" d="M30 22.5L32 24.5L36 20.5" stroke="#111111" stroke-width="2" stroke-linecap="round" stroke-linejoin="round"/>
<path id="Vector_8" d="M30 31L32 33L36 29" stroke="#111111" stroke-width="2" stroke-linecap="round" stroke-linejoin="round"/>
</g>
</svg>
