<svg width="49" height="48" viewBox="0 0 49 48" fill="none" xmlns="http://www.w3.org/2000/svg">
<g id="Icons">
<path id="Vector" d="M39.677 44H17.323C14.659 44 12.5 41.841 12.5 39.177V16.823C12.5 14.159 14.659 12 17.323 12H39.677C42.341 12 44.5 14.159 44.5 16.823V39.177C44.5 41.841 42.341 44 39.677 44Z" fill="#DD1515"/>
<path id="Vector_2" d="M22.351 40.5H13C10.2 40.5 8 38.3 8 35.5V12.5C8 9.7 10.2 7.5 13 7.5H36C38.8 7.5 41 9.7 41 12.5V21.511" stroke="#111111" stroke-width="2" stroke-linecap="round" stroke-linejoin="round"/>
<path id="Vector_3" d="M15 5V9.5" stroke="#111111" stroke-width="2" stroke-miterlimit="10" stroke-linecap="round" stroke-linejoin="round"/>
<path id="Vector_4" d="M34 5V9.5" stroke="#111111" stroke-width="2" stroke-miterlimit="10" stroke-linecap="round" stroke-linejoin="round"/>
<path id="Vector_5" d="M15.202 15.5H41" stroke="#111111" stroke-width="2" stroke-linecap="round" stroke-linejoin="round"/>
<circle id="Ellipse 1" cx="36.5" cy="35" r="9.5" fill="white"/>
<path id="Vector_6" d="M36.5 25.4999C39 25.3999 41.4 26.4999 43.3 28.3999C47 32.0999 46.9 38.1999 43.2 41.7999C39.5 45.4999 33.4 45.3999 29.8 41.6999C26.1 37.9999 26.2 31.8999 29.9 28.2999" stroke="#111111" stroke-width="2" stroke-linecap="round" stroke-linejoin="round"/>
<path id="Vector_7" d="M36.5 31.7002V38.3002" stroke="#111111" stroke-width="2" stroke-linecap="round" stroke-linejoin="round"/>
<path id="Vector_8" d="M39.8 35H33.2" stroke="#111111" stroke-width="2" stroke-linecap="round" stroke-linejoin="round"/>
</g>
</svg>
