<svg width="49" height="48" viewBox="0 0 49 48" fill="none" xmlns="http://www.w3.org/2000/svg">
<g id="Icons">
<path id="Vector" d="M28.5 47C38.9934 47 47.5 38.4934 47.5 28C47.5 17.5066 38.9934 9 28.5 9C18.0066 9 9.5 17.5066 9.5 28C9.5 38.4934 18.0066 47 28.5 47Z" fill="#DD1515"/>
<path id="Vector_2" d="M39.2 35.2998C41.9 31.6998 43.4 27.0998 42.9 22.1998C42.1 13.5998 35.2 6.69981 26.6 5.69981C19.9 4.99981 13.8 7.79981 10 12.5998" stroke="#111111" stroke-width="2" stroke-miterlimit="5" stroke-linecap="round" stroke-linejoin="round"/>
<path id="Vector_3" d="M14 32.4002H17.1C18.2 33.4002 19.7 34.0002 21.3 34.0002H28.3C30.2 34.0002 31.9 32.6002 32.1 30.6002L32.4 28.2002L32.9 24.4002L33.1 22.8002C33.3 21.3002 32.1 19.9002 30.6 19.9002H24.8C24.3 19.9002 24 19.4002 24.2 19.0002C24.7 17.8002 25 16.8002 25.3 15.5002C25.4 14.8002 25.5 14.4002 25.5 14.0002C25.5 12.3002 24 11.8002 23.2 11.7002C22.9 11.7002 22.6 11.8002 22.4 12.0002C21.7 13.1002 17.9 17.9002 16.2 20.3002C15.6 21.1002 14.7 21.5002 13.8 21.5002H8C6.9 21.5002 6 22.3002 6 23.4002C6 24.2002 6 25.1002 6.1 25.9002C7 34.5002 14 41.4002 22.6 42.3002C26.8 42.7002 30.7 41.7002 34 39.8002" stroke="#111111" stroke-width="2" stroke-miterlimit="5" stroke-linecap="round" stroke-linejoin="round"/>
</g>
</svg>
